/* XPM */
static char *_f8d52108a21462fdffab1c06e4a213e[] = {
/* columns rows colors chars-per-pixel */
"32 32 5 1 ",
"  c #465B65",
". c #556E7A",
"X c #48BEA7",
"o c #8AD1C6",
"O c None",
/* pixels */
"OOOOOOOOOOOOOOOOOOOOOOOOOOOOOOOO",
"OOOOOOOOOOOOOOOOOOOOOOOOOOOOOOOO",
"oOOOOOOOOOOOOOOOOOOOOOOOOOOOOOOX",
"ooOOOOOOOOOOOOOOOOOOOOOOOOOOOOXX",
"ooooOOOOOOOOOOOOOOOOOOOOOOOOXXXX",
"oooooOOOOOOOOOOOOOOOOOOOOOOXXXXX",
"oooooooOOOOOOOOOOOOOOOOOOXXXXXXX",
"ooooooooOOOOOOOOOOOOOOOOXXXXXXXX",
"ooooooooooOOOOOOOOOOOOXXXXXXXXXX",
"oooooooooooOOOOOOOOOOXXXXXXXXXXX",
"oooooooooooooOOOOOOXXXXXXXXXXXXX",
"ooooooooooooooOOOOXXXXXXXXXXXXXX",
"OoooooooooooooooXXXXXXXXXXXXXXXO",
"OOooooooooooooooXXXXXXXXXXXXXXOO",
"..OOooooooooooooXXXXXXXXXXXXOO  ",
"...OOoooooooooooXXXXXXXXXXXOO   ",
".....OOoooooooooXXXXXXXXXOO     ",
"......OOooooooooXXXXXXXXOO      ",
"........OOooooooXXXXXXOO        ",
".........OOoooooXXXXXOO         ",
"...........OOoooXXXOO           ",
"............OOooXXOO            ",
"..............OOOO              ",
"...............OO               ",
"................                ",
"................                ",
"................                ",
"................                ",
"................                ",
"OOOOOOOOOOOOOOOOOOOOOOOOOOOOOOOO",
"OOOOOOOOOOOOOOOOOOOOOOOOOOOOOOOO",
"OOOOOOOOOOOOOOOOOOOOOOOOOOOOOOOO"
};
