/* XPM */
static char *_859ad731b9a4bedc23ba00bbd87b3fb[] = {
/* columns rows colors chars-per-pixel */
"64 64 5 1 ",
"  c #465B65",
". c #556E7A",
"X c #48BEA7",
"o c #8AD1C6",
"O c None",
/* pixels */
"OOOOOOOOOOOOOOOOOOOOOOOOOOOOOOOOOOOOOOOOOOOOOOOOOOOOOOOOOOOOOOOO",
"OOOOOOOOOOOOOOOOOOOOOOOOOOOOOOOOOOOOOOOOOOOOOOOOOOOOOOOOOOOOOOOO",
"OOOOOOOOOOOOOOOOOOOOOOOOOOOOOOOOOOOOOOOOOOOOOOOOOOOOOOOOOOOOOOOO",
"OOOOOOOOOOOOOOOOOOOOOOOOOOOOOOOOOOOOOOOOOOOOOOOOOOOOOOOOOOOOOOOO",
"OOOOOOOOOOOOOOOOOOOOOOOOOOOOOOOOOOOOOOOOOOOOOOOOOOOOOOOOOOOOOOOO",
"oOOOOOOOOOOOOOOOOOOOOOOOOOOOOOOOOOOOOOOOOOOOOOOOOOOOOOOOOOOOOOOX",
"ooOOOOOOOOOOOOOOOOOOOOOOOOOOOOOOOOOOOOOOOOOOOOOOOOOOOOOOOOOOOOXX",
"ooooOOOOOOOOOOOOOOOOOOOOOOOOOOOOOOOOOOOOOOOOOOOOOOOOOOOOOOOOXXXX",
"oooooOOOOOOOOOOOOOOOOOOOOOOOOOOOOOOOOOOOOOOOOOOOOOOOOOOOOOOXXXXX",
"oooooooOOOOOOOOOOOOOOOOOOOOOOOOOOOOOOOOOOOOOOOOOOOOOOOOOOXXXXXXX",
"ooooooooOOOOOOOOOOOOOOOOOOOOOOOOOOOOOOOOOOOOOOOOOOOOOOOOXXXXXXXX",
"ooooooooooOOOOOOOOOOOOOOOOOOOOOOOOOOOOOOOOOOOOOOOOOOOOXXXXXXXXXX",
"oooooooooooOOOOOOOOOOOOOOOOOOOOOOOOOOOOOOOOOOOOOOOOOOXXXXXXXXXXX",
"oooooooooooooOOOOOOOOOOOOOOOOOOOOOOOOOOOOOOOOOOOOOOXXXXXXXXXXXXX",
"ooooooooooooooOOOOOOOOOOOOOOOOOOOOOOOOOOOOOOOOOOOOXXXXXXXXXXXXXX",
"oooooooooooooooOOOOOOOOOOOOOOOOOOOOOOOOOOOOOOOOOOXXXXXXXXXXXXXXX",
"oooooooooooooooooOOOOOOOOOOOOOOOOOOOOOOOOOOOOOOXXXXXXXXXXXXXXXXX",
"ooooooooooooooooooOOOOOOOOOOOOOOOOOOOOOOOOOOOOXXXXXXXXXXXXXXXXXX",
"ooooooooooooooooooooOOOOOOOOOOOOOOOOOOOOOOOOXXXXXXXXXXXXXXXXXXXX",
"oooooooooooooooooooooOOOOOOOOOOOOOOOOOOOOOOXXXXXXXXXXXXXXXXXXXXX",
"oooooooooooooooooooooooOOOOOOOOOOOOOOOOOOXXXXXXXXXXXXXXXXXXXXXXX",
"ooooooooooooooooooooooooOOOOOOOOOOOOOOOOXXXXXXXXXXXXXXXXXXXXXXXX",
"ooooooooooooooooooooooooooOOOOOOOOOOOOXXXXXXXXXXXXXXXXXXXXXXXXXX",
"oooooooooooooooooooooooooooOOOOOOOOOOXXXXXXXXXXXXXXXXXXXXXXXXXXX",
"oooooooooooooooooooooooooooooOOOOOOXXXXXXXXXXXXXXXXXXXXXXXXXXXXX",
"OoooooooooooooooooooooooooooooOOOOXXXXXXXXXXXXXXXXXXXXXXXXXXXXXO",
"OOooooooooooooooooooooooooooooooXXXXXXXXXXXXXXXXXXXXXXXXXXXXXXOO",
"OOOOooooooooooooooooooooooooooooXXXXXXXXXXXXXXXXXXXXXXXXXXXXOOOO",
".OOOOoooooooooooooooooooooooooooXXXXXXXXXXXXXXXXXXXXXXXXXXXOOOO ",
"...OOOOoooooooooooooooooooooooooXXXXXXXXXXXXXXXXXXXXXXXXXOOOO   ",
"....OOOOooooooooooooooooooooooooXXXXXXXXXXXXXXXXXXXXXXXXOOOO    ",
"......OOOOooooooooooooooooooooooXXXXXXXXXXXXXXXXXXXXXXOOOO      ",
".......OOOOoooooooooooooooooooooXXXXXXXXXXXXXXXXXXXXXOOOO       ",
"........OOOOOoooooooooooooooooooXXXXXXXXXXXXXXXXXXXOOOOO        ",
"..........OOOOooooooooooooooooooXXXXXXXXXXXXXXXXXXOOOO          ",
"...........OOOOOooooooooooooooooXXXXXXXXXXXXXXXXOOOOO           ",
".............OOOOoooooooooooooooXXXXXXXXXXXXXXXOOOO             ",
"..............OOOOOoooooooooooooXXXXXXXXXXXXXOOOOO              ",
"................OOOOooooooooooooXXXXXXXXXXXXOOOO                ",
".................OOOOoooooooooooXXXXXXXXXXXOOOO                 ",
"...................OOOOoooooooooXXXXXXXXXOOOO                   ",
"....................OOOOooooooooXXXXXXXXOOOO                    ",
"......................OOOOooooooXXXXXXOOOO                      ",
".......................OOOOoooooXXXXXOOOO                       ",
".........................OOOOoooXXXOOOO                         ",
"..........................OOOOooXXOOOO                          ",
"............................OOOOOOOO                            ",
".............................OOOOOO                             ",
"..............................OOOO                              ",
"................................                                ",
"................................                                ",
"................................                                ",
"................................                                ",
"................................                                ",
"................................                                ",
"................................                                ",
"................................                                ",
"................................                                ",
"................................                                ",
"OOOOOOOOOOOOOOOOOOOOOOOOOOOOOOOOOOOOOOOOOOOOOOOOOOOOOOOOOOOOOOOO",
"OOOOOOOOOOOOOOOOOOOOOOOOOOOOOOOOOOOOOOOOOOOOOOOOOOOOOOOOOOOOOOOO",
"OOOOOOOOOOOOOOOOOOOOOOOOOOOOOOOOOOOOOOOOOOOOOOOOOOOOOOOOOOOOOOOO",
"OOOOOOOOOOOOOOOOOOOOOOOOOOOOOOOOOOOOOOOOOOOOOOOOOOOOOOOOOOOOOOOO",
"OOOOOOOOOOOOOOOOOOOOOOOOOOOOOOOOOOOOOOOOOOOOOOOOOOOOOOOOOOOOOOOO"
};
