/* XPM */
static char *e344e7fff3a54ab7ab4ffc992e0a848b[] = {
/* columns rows colors chars-per-pixel */
"16 16 13 1 ",
"  c #465B65",
". c #465C65",
"X c #475E66",
"o c #556E7A",
"O c #566F7A",
"+ c #56717C",
"@ c #4BB4A0",
"# c #4ABBA5",
"$ c #48BEA7",
"% c #87C6BF",
"& c #89CDC3",
"* c #8AD1C6",
"= c None",
/* pixels */
"================",
"*==============$",
"**============$$",
"****========$$$$",
"*****======$$$$$",
"*******==$$$$$$$",
"=*******$$$$$$$=",
"o=******$$$$$$= ",
"ooo%****$$$$@X  ",
"oooo=***$$$=    ",
"ooooo+&*$#X     ",
"ooooooo==       ",
"oooooooo        ",
"oooooooo        ",
"oooooooo        ",
"================"
};
